# xmcd
#
# Track frame offsets:
#	150
#	21601
#	37083
#	53816
#	70824
#	92947
#	112487
#	126421
#	141550
#	154187
#	175848
#
# Disc length: 2662 seconds
#
# Revision: 1
# Processed by: cddbd v1.5.2PL0 Copyright (c) Steve Scherf et al.
# Submitted via: audiograbber 1.83.01
#
DISCID=b00a640b
DTITLE=Various Artist - Country Radio September 2013
DYEAR=2013
DGENRE=Country
TTITLE0=Beat this summer acoustic mix Brad Paisley
TTITLE1=Anywhere with you Summer mix Jake Owen
TTITLE2=Red Taylor Swift
TTITLE3=I miss you The Hennignsens
TTITLE4=Aint much left of me Blackberry Smoke
TTITLE5=Southern Girl Tim McGraw
TTITLE6=theres the sun Album version Kix Brooks
TTITLE7=Wake up lovin you Craig Morgan
TTITLE8=Drunk Las night Eli young band
TTITLE9=Tie it up single edit Kelly Clarkson
TTITLE10=Wagon Wheel remix  dj base
EXTD=
EXTT0=
EXTT1=
EXTT2=
EXTT3=
EXTT4=
EXTT5=
EXTT6=
EXTT7=
EXTT8=
EXTT9=
EXTT10=
PLAYORDER=
